<svg width="32" height="36" viewBox="0 0 32 36" fill="none" xmlns="http://www.w3.org/2000/svg">
<path d="M6 1L1 7.66667V31C1 31.8841 1.35119 32.7319 1.97631 33.357C2.60143 33.9821 3.44928 34.3333 4.33333 34.3333H27.6667C28.5507 34.3333 29.3986 33.9821 30.0237 33.357C30.6488 32.7319 31 31.8841 31 31V7.66667L26 1H6Z" stroke="#41666E" stroke-width="2" stroke-linecap="round" stroke-linejoin="round"/>
<path d="M1 7.66663H31" stroke="#41666E" stroke-width="2" stroke-linecap="round" stroke-linejoin="round"/>
<path d="M22.6666 14.3333C22.6666 16.1014 21.9642 17.7971 20.714 19.0474C19.4637 20.2976 17.768 21 15.9999 21C14.2318 21 12.5361 20.2976 11.2859 19.0474C10.0356 17.7971 9.33325 16.1014 9.33325 14.3333" stroke="#41666E" stroke-width="2" stroke-linecap="round" stroke-linejoin="round"/>
</svg>
