<svg width="15" height="15" viewBox="0 0 15 15" fill="none" xmlns="http://www.w3.org/2000/svg">
<g clip-path="url(#clip0_215_61)">
<path d="M7.49993 11.5625C6.79596 11.5609 6.12129 11.2805 5.6235 10.7827C5.12572 10.2849 4.84533 9.61023 4.84368 8.90626C4.84368 8.65001 5.05618 8.43751 5.31243 8.43751C5.56868 8.43751 5.78118 8.65001 5.78118 8.90626C5.78118 9.85626 6.54993 10.625 7.49993 10.625C8.44993 10.625 9.21868 9.85626 9.21868 8.90626C9.21868 8.65001 9.43118 8.43751 9.68743 8.43751C9.94368 8.43751 10.1562 8.65001 10.1562 8.90626C10.1545 9.61023 9.87415 10.2849 9.37636 10.7827C8.87857 11.2805 8.2039 11.5609 7.49993 11.5625ZM3.24368 3.98813C3.12493 3.98813 2.99993 3.93813 2.91243 3.85063C2.82526 3.76242 2.77637 3.6434 2.77637 3.51938C2.77637 3.39537 2.82526 3.27635 2.91243 3.18813L5.18118 0.919385C5.36243 0.738135 5.66243 0.738135 5.84368 0.919385C6.02493 1.10063 6.02493 1.40063 5.84368 1.58188L3.57493 3.85063C3.48118 3.93813 3.36243 3.98813 3.24368 3.98813ZM11.7562 3.98813C11.6374 3.98813 11.5187 3.94438 11.4249 3.85063L9.15618 1.58188C9.06901 1.49367 9.02012 1.37465 9.02012 1.25063C9.02012 1.12662 9.06901 1.0076 9.15618 0.919385C9.33743 0.738135 9.63743 0.738135 9.81868 0.919385L12.0874 3.18813C12.2687 3.36938 12.2687 3.66938 12.0874 3.85063C11.9999 3.93813 11.8749 3.98813 11.7562 3.98813Z" fill="#142023"/>
<path d="M12.6313 6.62622H2.5C2.0625 6.63247 1.5625 6.63247 1.2 6.26997C0.9125 5.98872 0.78125 5.55122 0.78125 4.90747C0.78125 3.18872 2.0375 3.18872 2.6375 3.18872H12.3625C12.9625 3.18872 14.2188 3.18872 14.2188 4.90747C14.2188 5.55747 14.0875 5.98872 13.8 6.26997C13.475 6.59497 13.0375 6.62622 12.6313 6.62622ZM2.6375 5.68872H12.5063C12.7875 5.69497 13.05 5.69497 13.1375 5.60747C13.1813 5.56372 13.275 5.41372 13.275 4.90747C13.275 4.20122 13.1 4.12622 12.3563 4.12622H2.6375C1.89375 4.12622 1.71875 4.20122 1.71875 4.90747C1.71875 5.41372 1.81875 5.56372 1.85625 5.60747C1.94375 5.68872 2.2125 5.68872 2.4875 5.68872H2.6375Z" fill="#142023"/>
<path d="M9.30622 14.2188H5.53747C3.29997 14.2188 2.79997 12.8875 2.60622 11.7313L1.72497 6.32503C1.68122 6.06878 1.85622 5.83128 2.11247 5.78753C2.36247 5.74378 2.60622 5.91878 2.64997 6.17503L3.53122 11.575C3.71247 12.6813 4.08747 13.2813 5.53747 13.2813H9.30622C10.9125 13.2813 11.0937 12.7188 11.3 11.6313L12.35 6.16253C12.4 5.90628 12.6437 5.73753 12.9 5.79378C13.1562 5.84378 13.3187 6.08753 13.2687 6.34378L12.2187 11.8125C11.975 13.0813 11.5687 14.2188 9.30622 14.2188Z" fill="#142023"/>
</g>
<defs>
<clipPath id="clip0_215_61">
<rect width="15" height="15" fill="white"/>
</clipPath>
</defs>
</svg>
